<svg width="532" height="577" viewBox="0 0 532 577" fill="none" xmlns="http://www.w3.org/2000/svg">
<path d="M20 316C26.5056 316 33.0751 317.054 39.5135 317.904C69.4232 321.852 99.011 324.992 129.103 327.993C146.308 329.708 163.582 329.971 180.722 331.514C181.789 331.61 186.163 332.136 185.528 334.179C183.691 340.093 163.92 348.183 160.344 350.169C137.273 362.98 114.42 377.038 90.364 387.955C80.5893 392.391 105.443 397.632 106.513 397.854C163.969 409.787 224.644 405.088 283 405.088" stroke="#CC9657" stroke-width="40" stroke-linecap="round"/>
<path d="M142.227 174.773H228.652V255.34C223.965 260.418 217.91 265.398 210.488 270.281C203.066 274.969 194.473 278.875 184.707 282C175.137 284.93 164.59 286.395 153.066 286.395C138.223 286.395 124.551 283.758 112.051 278.484C99.5508 273.016 88.6133 265.594 79.2383 256.219C69.8633 246.844 62.5391 236.004 57.2656 223.699C52.1875 211.199 49.6484 197.918 49.6484 183.855C49.6484 169.793 52.1875 156.609 57.2656 144.305C62.5391 131.805 69.8633 120.867 79.2383 111.492C88.6133 102.117 99.5508 94.793 112.051 89.5195C124.551 84.0508 138.223 81.3164 153.066 81.3164C167.324 81.3164 178.945 83.2695 187.93 87.1758C197.109 91.082 205.117 96.1602 211.953 102.41V131.414C207.656 128.289 202.773 124.871 197.305 121.16C192.031 117.449 185.781 114.227 178.555 111.492C171.523 108.562 163.027 107.098 153.066 107.098C138.418 107.098 125.332 110.418 113.809 117.059C102.285 123.699 93.2031 132.879 86.5625 144.598C79.9219 156.121 76.6016 169.207 76.6016 183.855C76.6016 198.504 79.9219 211.59 86.5625 223.113C93.2031 234.637 102.285 243.816 113.809 250.652C125.332 257.293 138.418 260.613 153.066 260.613C163.027 260.613 171.035 259.637 177.09 257.684C183.145 255.535 187.93 253.191 191.445 250.652C194.961 247.918 197.793 245.672 199.941 243.914L200.234 198.211H142.227V174.773Z" fill="black"/>
<path d="M295.737 176.799C307.065 176.799 317.905 179.436 328.256 184.709C338.608 189.787 347.104 197.209 353.745 206.975C360.581 216.545 363.999 228.068 363.999 241.545C363.999 253.068 360.776 263.713 354.331 273.479C347.885 283.244 339.096 291.154 327.963 297.209C317.026 303.068 304.819 305.998 291.342 305.998C281.381 305.998 272.202 305.022 263.803 303.068C255.6 300.92 248.959 298.674 243.881 296.33V373.088H217.514V176.799H295.737ZM243.881 201.701V272.307C249.155 274.455 255.991 276.506 264.389 278.459C272.983 280.217 281.674 281.096 290.463 281.096C305.307 281.096 316.733 277.287 324.741 269.67C332.944 261.858 337.045 252.483 337.045 241.545C337.045 233.147 334.702 226.018 330.014 220.158C325.522 214.299 319.565 209.807 312.143 206.682C304.721 203.361 296.811 201.701 288.413 201.701H243.881Z" fill="black"/>
</svg>
