<svg width="166" height="149" viewBox="0 0 166 149" fill="none" xmlns="http://www.w3.org/2000/svg">
<path d="M10 104C13.0954 104 16.2211 104.402 19.2845 104.726C33.5155 106.233 47.5934 107.431 61.911 108.576C70.0972 109.23 78.3163 109.331 86.4715 109.919C86.9789 109.956 89.0604 110.157 88.7583 110.936C87.884 113.193 78.4771 116.28 76.7753 117.037C65.7982 121.925 54.925 127.289 43.4791 131.455C38.8284 133.147 50.6538 135.147 51.1629 135.231C78.5002 139.784 107.37 137.991 135.135 137.991" stroke="#CC9657" stroke-width="20" stroke-linecap="round"/>
<path d="M94.3125 55.6875H121.969V81.4688C120.469 83.0938 118.531 84.6875 116.156 86.25C113.781 87.75 111.031 89 107.906 90C104.844 90.9375 101.469 91.4062 97.7812 91.4062C93.0312 91.4062 88.6562 90.5625 84.6562 88.875C80.6562 87.125 77.1562 84.75 74.1562 81.75C71.1562 78.75 68.8125 75.2812 67.125 71.3438C65.5 67.3438 64.6875 63.0938 64.6875 58.5938C64.6875 54.0938 65.5 49.875 67.125 45.9375C68.8125 41.9375 71.1562 38.4375 74.1562 35.4375C77.1562 32.4375 80.6562 30.0938 84.6562 28.4062C88.6562 26.6563 93.0312 25.7812 97.7812 25.7812C102.344 25.7812 106.062 26.4062 108.938 27.6562C111.875 28.9063 114.438 30.5312 116.625 32.5312V41.8125C115.25 40.8125 113.688 39.7188 111.938 38.5312C110.25 37.3438 108.25 36.3125 105.938 35.4375C103.688 34.5 100.969 34.0312 97.7812 34.0312C93.0938 34.0312 88.9062 35.0938 85.2188 37.2188C81.5312 39.3438 78.625 42.2812 76.5 46.0312C74.375 49.7188 73.3125 53.9062 73.3125 58.5938C73.3125 63.2812 74.375 67.4688 76.5 71.1562C78.625 74.8438 81.5312 77.7812 85.2188 79.9688C88.9062 82.0938 93.0938 83.1562 97.7812 83.1562C100.969 83.1562 103.531 82.8438 105.469 82.2188C107.406 81.5312 108.938 80.7812 110.062 79.9688C111.188 79.0938 112.094 78.375 112.781 77.8125L112.875 63.1875H94.3125V55.6875Z" fill="white"/>
<path d="M139.344 58.1875C142.969 58.1875 146.438 59.0312 149.75 60.7188C153.062 62.3438 155.781 64.7188 157.906 67.8438C160.094 70.9062 161.188 74.5938 161.188 78.9062C161.188 82.5938 160.156 86 158.094 89.125C156.031 92.25 153.219 94.7812 149.656 96.7188C146.156 98.5938 142.25 99.5312 137.938 99.5312C134.75 99.5312 131.812 99.2188 129.125 98.5938C126.5 97.9062 124.375 97.1875 122.75 96.4375V121H114.312V58.1875H139.344ZM122.75 66.1562V88.75C124.438 89.4375 126.625 90.0938 129.312 90.7188C132.062 91.2812 134.844 91.5625 137.656 91.5625C142.406 91.5625 146.062 90.3438 148.625 87.9062C151.25 85.4062 152.562 82.4062 152.562 78.9062C152.562 76.2188 151.812 73.9375 150.312 72.0625C148.875 70.1875 146.969 68.75 144.594 67.75C142.219 66.6875 139.688 66.1562 137 66.1562H122.75Z" fill="white"/>
</svg>
