<svg width="454" height="542" viewBox="0 0 454 542" fill="none" xmlns="http://www.w3.org/2000/svg">
<path d="M10 100C12.9683 100 15.9658 100.421 18.9035 100.761C32.5505 102.341 46.0507 103.597 59.7807 104.797C67.631 105.483 75.5128 105.589 83.3333 106.206C83.8199 106.244 85.816 106.455 85.5263 107.272C84.6879 109.637 75.667 112.873 74.0351 113.668C63.5084 118.792 53.0814 124.415 42.1053 128.782C37.6453 130.557 48.9855 132.653 49.4737 132.742C75.6891 137.515 103.374 135.635 130 135.635" stroke="#CC9657" stroke-width="20" stroke-linecap="round"/>
<path d="M78.3125 55.6875H105.969V81.4688C104.469 83.0938 102.531 84.6875 100.156 86.25C97.7812 87.75 95.0312 89 91.9062 90C88.8438 90.9375 85.4688 91.4062 81.7812 91.4062C77.0312 91.4062 72.6562 90.5625 68.6562 88.875C64.6562 87.125 61.1562 84.75 58.1562 81.75C55.1562 78.75 52.8125 75.2812 51.125 71.3438C49.5 67.3438 48.6875 63.0938 48.6875 58.5938C48.6875 54.0938 49.5 49.875 51.125 45.9375C52.8125 41.9375 55.1562 38.4375 58.1562 35.4375C61.1562 32.4375 64.6562 30.0938 68.6562 28.4062C72.6562 26.6563 77.0312 25.7812 81.7812 25.7812C86.3438 25.7812 90.0625 26.4062 92.9375 27.6562C95.875 28.9063 98.4375 30.5312 100.625 32.5312V41.8125C99.25 40.8125 97.6875 39.7188 95.9375 38.5312C94.25 37.3438 92.25 36.3125 89.9375 35.4375C87.6875 34.5 84.9688 34.0312 81.7812 34.0312C77.0938 34.0312 72.9062 35.0938 69.2188 37.2188C65.5312 39.3438 62.625 42.2812 60.5 46.0312C58.375 49.7188 57.3125 53.9062 57.3125 58.5938C57.3125 63.2812 58.375 67.4688 60.5 71.1562C62.625 74.8438 65.5312 77.7812 69.2188 79.9688C72.9062 82.0938 77.0938 83.1562 81.7812 83.1562C84.9688 83.1562 87.5312 82.8438 89.4688 82.2188C91.4062 81.5312 92.9375 80.7812 94.0625 79.9688C95.1875 79.0938 96.0938 78.375 96.7812 77.8125L96.875 63.1875H78.3125V55.6875Z" fill="black"/>
<path d="M122.582 55.1978C126.207 55.1978 129.676 56.0415 132.989 57.729C136.301 59.354 139.02 61.729 141.145 64.854C143.332 67.9165 144.426 71.604 144.426 75.9165C144.426 79.604 143.395 83.0103 141.332 86.1353C139.27 89.2603 136.457 91.7915 132.895 93.729C129.395 95.604 125.489 96.5415 121.176 96.5415C117.989 96.5415 115.051 96.229 112.364 95.604C109.739 94.9165 107.614 94.1978 105.989 93.4478V118.01H97.551V55.1978H122.582ZM105.989 63.1665V85.7603C107.676 86.4478 109.864 87.104 112.551 87.729C115.301 88.2915 118.082 88.5728 120.895 88.5728C125.645 88.5728 129.301 87.354 131.864 84.9165C134.489 82.4165 135.801 79.4165 135.801 75.9165C135.801 73.229 135.051 70.9478 133.551 69.0728C132.114 67.1978 130.207 65.7603 127.832 64.7603C125.457 63.6978 122.926 63.1665 120.239 63.1665H105.989Z" fill="black"/>
</svg>
