<svg width="614" height="570" viewBox="0 0 614 570" fill="none" xmlns="http://www.w3.org/2000/svg">
<path d="M35 312C43.6082 312 52.301 313.405 60.8202 314.538C100.396 319.803 139.547 323.989 179.364 327.99C202.13 330.278 224.987 330.628 247.667 332.686C249.078 332.814 254.866 333.515 254.026 336.239C251.595 344.123 225.434 354.911 220.702 357.559C190.174 374.64 159.936 393.384 128.105 407.941C115.171 413.855 148.058 420.843 149.474 421.139C225.499 437.049 305.784 430.784 383 430.784" stroke="#CC9657" stroke-width="70" stroke-linecap="round"/>
<path d="M230.227 174.773H316.652V255.34C311.965 260.418 305.91 265.398 298.488 270.281C291.066 274.969 282.473 278.875 272.707 282C263.137 284.93 252.59 286.395 241.066 286.395C226.223 286.395 212.551 283.758 200.051 278.484C187.551 273.016 176.613 265.594 167.238 256.219C157.863 246.844 150.539 236.004 145.266 223.699C140.188 211.199 137.648 197.918 137.648 183.855C137.648 169.793 140.188 156.609 145.266 144.305C150.539 131.805 157.863 120.867 167.238 111.492C176.613 102.117 187.551 94.793 200.051 89.5195C212.551 84.0508 226.223 81.3164 241.066 81.3164C255.324 81.3164 266.945 83.2695 275.93 87.1758C285.109 91.082 293.117 96.1602 299.953 102.41V131.414C295.656 128.289 290.773 124.871 285.305 121.16C280.031 117.449 273.781 114.227 266.555 111.492C259.523 108.562 251.027 107.098 241.066 107.098C226.418 107.098 213.332 110.418 201.809 117.059C190.285 123.699 181.203 132.879 174.562 144.598C167.922 156.121 164.602 169.207 164.602 183.855C164.602 198.504 167.922 211.59 174.562 223.113C181.203 234.637 190.285 243.816 201.809 250.652C213.332 257.293 226.418 260.613 241.066 260.613C251.027 260.613 259.035 259.637 265.09 257.684C271.145 255.535 275.93 253.191 279.445 250.652C282.961 247.918 285.793 245.672 287.941 243.914L288.234 198.211H230.227V174.773Z" fill="black"/>
<path d="M381.941 175.711C393.27 175.711 404.109 178.348 414.461 183.621C424.812 188.699 433.309 196.121 439.949 205.887C446.785 215.457 450.203 226.98 450.203 240.457C450.203 251.98 446.98 262.625 440.535 272.391C434.09 282.156 425.301 290.066 414.168 296.121C403.23 301.98 391.023 304.91 377.547 304.91C367.586 304.91 358.406 303.934 350.008 301.98C341.805 299.832 335.164 297.586 330.086 295.242V372H303.719V175.711H381.941ZM330.086 200.613V271.219C335.359 273.367 342.195 275.418 350.594 277.371C359.188 279.129 367.879 280.008 376.668 280.008C391.512 280.008 402.938 276.199 410.945 268.582C419.148 260.77 423.25 251.395 423.25 240.457C423.25 232.059 420.906 224.93 416.219 219.07C411.727 213.211 405.77 208.719 398.348 205.594C390.926 202.273 383.016 200.613 374.617 200.613H330.086Z" fill="black"/>
</svg>
